<?xml version="1.0" encoding="UTF-8" standalone="no"?>
<svg width="483px" height="21px" viewBox="0 0 483 21" version="1.1" xmlns="http://www.w3.org/2000/svg" xmlns:xlink="http://www.w3.org/1999/xlink">
    <!-- Generator: Sketch 39.1 (31720) - http://www.bohemiancoding.com/sketch -->
    <title>Group 7</title>
    <desc>Created with Sketch.</desc>
    <defs>
        <radialGradient cx="92.729491%" cy="50%" fx="92.729491%" fy="50%" r="92.3316498%" id="radialGradient-1">
            <stop stop-color="#B28247" offset="0%"></stop>
            <stop stop-color="#7A4B22" offset="100%"></stop>
        </radialGradient>
    </defs>
    <g id="Page-1" stroke="none" stroke-width="1" fill="none" fill-rule="evenodd">
        <g id="Letter" transform="translate(-61.000000, -66.000000)">
            <g id="Group-7" transform="translate(61.000000, 66.000000)">
                <g id="Group">
                    <polygon id="Triangle-1" fill="url(#radialGradient-1)" points="452 21 452 1 482 11"></polygon>
                    <polygon id="Path-2" fill="#000000" points="471.883716 7.5625 470 8.38378906 471.691989 10.1914062 470.90531 11.4726562 472.123973 12.7260742 471.883716 14.4692383 482.186035 10.6166992"></polygon>
                    <rect id="Rectangle-2" fill="#EB5656" style="mix-blend-mode: darken;" x="0" y="1" width="22" height="20" rx="8"></rect>
                    <rect id="Rectangle-2" fill="#FF5E5E" x="0" y="5" width="22" height="10" rx="5"></rect>
                    <rect id="Rectangle-1" fill="#EC9607" x="10" y="1" width="442" height="20"></rect>
                    <polygon id="Rectangle-1" fill="#F0AC3B" points="10 10.5625 452 10.5625 452 21 10 21"></polygon>
                    <rect id="Rectangle-3" fill="#A9A5A5" x="10" y="1" width="19" height="20"></rect>
                    <rect id="Rectangle-3" fill="#B3B1B1" x="10" y="11" width="19" height="10"></rect>
                    <path d="M33.5732422,1.04882812 L33.6494141,20.8867188" id="Path-3" stroke="#49D743"></path>
                    <path d="M46.6494141,20.8867188 L46.5732422,1.04882812" id="Path-3" stroke="#49D743"></path>
                    <path d="M46.4970703,10.5976562 L46.4970703,1.2109375" id="Path-3" stroke="#42BD3C"></path>
                    <path d="M33.4970703,10.5976562 L33.4970703,1.2109375" id="Path-3" stroke="#42BD3C"></path>
                    <path d="M39.5732422,1.04882812 L39.6494141,20.8867188" id="Path-3" stroke="#FF7600"></path>
                    <path d="M39.6494141,1.49892539 L39.6494141,10.8867188" id="Path-3" stroke="#D26200"></path>
                    <path d="M14.1310698,20.8867188 L14.0915865,1.04882812" id="Path-3" stroke="#BAB9B9"></path>
                    <path d="M18.1310698,20.8867188 L18.0915865,1.04882812" id="Path-3" stroke="#BAB9B9"></path>
                    <path d="M22.1310698,20.8867188 L22.0915865,1.04882812" id="Path-3" stroke="#BAB9B9"></path>
                    <path d="M14.0154146,11.5976562 L14.0154146,1.2109375" id="Path-3" stroke="#8D8D8D"></path>
                    <path d="M18.0154146,11.5976562 L18.0154146,1.2109375" id="Path-3" stroke="#8D8D8D"></path>
                    <path d="M22.0154146,11.5 L22.0154146,1.2109375" id="Path-3" stroke="#8D8D8D"></path>
                    <path d="M445.322266,0.947203544 C445.322266,0.947203544 442.103516,3.67248387 446.822266,8.16992176 C446.822266,8.16992176 443.204102,11.5220698 447.922852,14.5522299 C447.922852,14.5522299 443.633789,19.0174642 447.856445,20.8067782 L452.099609,21 L452.099609,0.947203517" id="Path-5" fill="#7A4C22"></path>
                </g>
            </g>
        </g>
    </g>
</svg>