<?xml version="1.0" encoding="UTF-8" standalone="no"?>
<svg width="404px" height="21px" viewBox="0 0 404 21" version="1.1" xmlns="http://www.w3.org/2000/svg" xmlns:xlink="http://www.w3.org/1999/xlink">
    <!-- Generator: Sketch 39.1 (31720) - http://www.bohemiancoding.com/sketch -->
    <title>Group 5</title>
    <desc>Created with Sketch.</desc>
    <defs>
        <radialGradient cx="92.729491%" cy="50%" fx="92.729491%" fy="50%" r="92.3316498%" id="radialGradient-1">
            <stop stop-color="#B28247" offset="0%"></stop>
            <stop stop-color="#7A4B22" offset="100%"></stop>
        </radialGradient>
    </defs>
    <g id="Page-1" stroke="none" stroke-width="1" fill="none" fill-rule="evenodd">
        <g id="Letter" transform="translate(-61.000000, -250.000000)">
            <g id="Group-5" transform="translate(61.000000, 250.000000)">
                <polygon id="Triangle-1" fill="url(#radialGradient-1)" points="373 20 373 0 403 10"></polygon>
                <polygon id="Path-2" fill="#000000" points="390.978406 7 389.978406 8.33691406 389.786679 10.9545898 385 13.2358398 389.218663 13.4892578 388.978406 15.2324219 403.417371 10.152832"></polygon>
                <rect id="Rectangle-2" fill="#3E9D32" style="mix-blend-mode: darken;" x="0" y="0" width="22" height="20" rx="8"></rect>
                <rect id="Rectangle-1" fill="#B53F24" x="6" y="0" width="367.574219" height="20"></rect>
                <polygon id="Rectangle-1" fill="#F74B25" points="6 1 373.574219 1 373.574219 11.4375 6 11.4375"></polygon>
                <rect id="Rectangle-3" fill="#A9A5A5" x="6" y="0" width="19" height="20"></rect>
                <rect id="Rectangle-3" fill="#B3B1B1" x="6" y="10" width="19" height="10"></rect>
                <path d="M29,0 L29.0761719,19.8378906" id="Path-3" stroke="#49D743"></path>
                <path d="M42.0761719,19.8378906 L42,0" id="Path-3" stroke="#49D743"></path>
                <path d="M42,9.38671875 L42,0" id="Path-3" stroke="#42BD3C"></path>
                <path d="M29,9.38671875 L29,0" id="Path-3" stroke="#42BD3C"></path>
                <path d="M35,0 L35.0761719,19.8378906" id="Path-3" stroke="#FF7600"></path>
                <path d="M35,1 L35,10.3877934" id="Path-3" stroke="#D26200"></path>
                <path d="M10.0394833,19.8378906 L10,0" id="Path-3" stroke="#BAB9B9"></path>
                <path d="M14.0394833,19.8378906 L14,0" id="Path-3" stroke="#BAB9B9"></path>
                <path d="M18.0394833,19.8378906 L18,0" id="Path-3" stroke="#BAB9B9"></path>
                <path d="M10,10.3867188 L10,0" id="Path-3" stroke="#8D8D8D"></path>
                <path d="M14,10.3867188 L14,0" id="Path-3" stroke="#8D8D8D"></path>
                <path d="M18,10.2890625 L18,0" id="Path-3" stroke="#8D8D8D"></path>
                <path d="M368.870055,0 C368.870055,0 369.489659,2.72528035 373.10797,7.22271824 C373.10797,7.22271824 365.40076,10.5748663 369.019071,13.6050264 C369.019071,13.6050264 359.429859,18.0702606 362.667768,19.8595747 L373.589346,20.0527965 L373.589346,0" id="Path-5" fill="#7A4C22"></path>
            </g>
        </g>
    </g>
</svg>