<?xml version="1.0" encoding="UTF-8" standalone="no"?>
<svg width="225px" height="21px" viewBox="0 0 225 21" version="1.1" xmlns="http://www.w3.org/2000/svg" xmlns:xlink="http://www.w3.org/1999/xlink">
    <!-- Generator: Sketch 39.1 (31720) - http://www.bohemiancoding.com/sketch -->
    <title>Group 3</title>
    <desc>Created with Sketch.</desc>
    <defs>
        <radialGradient cx="92.729491%" cy="50%" fx="92.729491%" fy="50%" r="92.3316498%" id="radialGradient-1">
            <stop stop-color="#B28247" offset="0%"></stop>
            <stop stop-color="#7A4B22" offset="100%"></stop>
        </radialGradient>
    </defs>
    <g id="Page-1" stroke="none" stroke-width="1" fill="none" fill-rule="evenodd">
        <g id="Letter" transform="translate(-61.000000, -434.000000)">
            <g id="Group-3" transform="translate(61.000000, 434.000000)">
                <polygon id="Triangle-1" fill="url(#radialGradient-1)" points="194 21 194 1 224 11"></polygon>
                <polygon id="Path-2" fill="#000000" points="212.380128 7.1204767 207.214844 5.59082031 205.331128 6.41210938 201.791016 8.53515625 206.236438 9.50097656 207.455101 10.7543945 206.236438 16.7128906 224.186035 10.6166992"></polygon>
                <rect id="Rectangle-2" fill="#C1C1C1" style="mix-blend-mode: darken;" x="0" y="1" width="22" height="20" rx="8"></rect>
                <rect id="Rectangle-1" fill="#566DB5" x="12" y="1" width="180.589346" height="20"></rect>
                <polygon id="Rectangle-1" fill="#3D4D7E" points="12 10.5625 192.589346 10.5625 192.589346 21 12 21"></polygon>
                <rect id="Rectangle-3" fill="#A9A5A5" x="12" y="1" width="19" height="20"></rect>
                <rect id="Rectangle-3" fill="#B3B1B1" x="12" y="11" width="19" height="10"></rect>
                <path d="M35.5732422,1.04882812 L35.6494141,20.8867188" id="Path-3" stroke="#49D743"></path>
                <path d="M48.6494141,20.8867188 L48.5732422,1.04882812" id="Path-3" stroke="#49D743"></path>
                <path d="M48.4970703,10.5976562 L48.4970703,1.2109375" id="Path-3" stroke="#42BD3C"></path>
                <path d="M35.4970703,10.5976562 L35.4970703,1.2109375" id="Path-3" stroke="#42BD3C"></path>
                <path d="M41.5732422,1.04882812 L41.6494141,20.8867188" id="Path-3" stroke="#FF7600"></path>
                <path d="M41.6494141,1.49892539 L41.6494141,10.8867188" id="Path-3" stroke="#D26200"></path>
                <path d="M16.1310698,20.8867188 L16.0915865,1.04882812" id="Path-3" stroke="#BAB9B9"></path>
                <path d="M20.1310698,20.8867188 L20.0915865,1.04882812" id="Path-3" stroke="#BAB9B9"></path>
                <path d="M24.1310698,20.8867188 L24.0915865,1.04882812" id="Path-3" stroke="#BAB9B9"></path>
                <path d="M16.0154146,11.5976562 L16.0154146,1.2109375" id="Path-3" stroke="#8D8D8D"></path>
                <path d="M20.0154146,11.5976562 L20.0154146,1.2109375" id="Path-3" stroke="#8D8D8D"></path>
                <path d="M24.0154146,11.5 L24.0154146,1.2109375" id="Path-3" stroke="#8D8D8D"></path>
                <path d="M189.322266,0.947203544 C189.322266,0.947203544 183.868652,3.89172215 188.587402,8.38916004 C188.587402,8.38916004 184.603516,16.2730634 189.322266,19.3032235 C189.322266,19.3032235 187.633789,19.0174642 191.856445,20.8067782 L194.099609,21 L194.099609,0.947203517" id="Path-5" fill="#7A4C22"></path>
            </g>
        </g>
    </g>
</svg>